<svg width="324" height="57" viewBox="0 0 324 57" fill="none" xmlns="http://www.w3.org/2000/svg">
<path d="M0.90625 57H17.4688V35.2031H37.3125V57H53.875V0.632812H37.3125V22.0781H17.4688V0.632812H0.90625V57Z" fill="#E4E3E2"/>
<path d="M61.6875 57H101.453V43.875H78.25V34.9297H100.008V22.7422H78.25V13.7578H101.453V0.632812H61.6875V57Z" fill="#E4E3E2"/>
<path d="M106.453 57H123.875L126.805 45.7891H143.68L146.609 57H164.031L145.633 0.632812H124.852L106.453 57ZM135.086 14.0703H135.398L140.633 34.1094H129.852L135.086 14.0703Z" fill="#E4E3E2"/>
<path d="M169.109 57H193.211C210.281 57 220.359 46.4531 220.359 28.4062V28.3281C220.359 10.3203 210.281 0.632812 193.211 0.632812H169.109V57ZM185.672 43.8359V13.7969H190.867C198.758 13.7969 203.484 18.875 203.484 28.3281V28.4062C203.484 38.7969 199.148 43.8359 190.867 43.8359H185.672Z" fill="#E4E3E2"/>
<path d="M226.844 57H266.609V43.875H243.406V34.9297H265.164V22.7422H243.406V13.7578H266.609V0.632812H226.844V57Z" fill="#E4E3E2"/>
<path d="M274.344 57H290.906V38.4844H296.336L305.242 57H323.758L313.055 36.0234C318.523 33.3672 322.117 27.0391 322.117 20.0078V19.9297C322.117 7.42969 314.227 0.632812 299.734 0.632812H274.344V57ZM290.906 26.8047V12.8594H297.82C302.195 12.8594 305.242 15.7109 305.242 19.8125V19.8906C305.242 24.0312 302.273 26.8047 297.82 26.8047H290.906Z" fill="#E4E3E2"/>
</svg>
