<svg width="96" height="16" viewBox="0 0 96 16" fill="none" xmlns="http://www.w3.org/2000/svg">
<path d="M7.61394 0.822498C7.76744 0.495478 8.23256 0.495478 8.38606 0.822497L10.0854 4.44286C10.3271 4.95784 10.8096 5.31843 11.372 5.40435L15.1796 5.9861C15.5227 6.03853 15.6628 6.45706 15.4204 6.70551L12.6012 9.59492C12.2231 9.98246 12.0514 10.5265 12.1386 11.0609L12.8029 15.1332C12.8602 15.4846 12.4872 15.7473 12.1757 15.5751L8.82529 13.7231C8.31172 13.4392 7.68828 13.4392 7.17471 13.7231L3.82435 15.5751C3.51278 15.7473 3.1398 15.4846 3.19712 15.1332L3.8614 11.0609C3.94856 10.5265 3.77687 9.98246 3.39876 9.59492L0.579606 6.70551C0.337195 6.45706 0.477307 6.03853 0.820444 5.9861L4.62804 5.40435C5.1904 5.31843 5.67292 4.95784 5.91463 4.44287L7.61394 0.822498Z" fill="#FF9635"/>
<path d="M27.6139 0.822498C27.7674 0.495478 28.2326 0.495478 28.3861 0.822497L30.0854 4.44286C30.3271 4.95784 30.8096 5.31843 31.372 5.40435L35.1796 5.9861C35.5227 6.03853 35.6628 6.45706 35.4204 6.70551L32.6012 9.59492C32.2231 9.98246 32.0514 10.5265 32.1386 11.0609L32.8029 15.1332C32.8602 15.4846 32.4872 15.7473 32.1757 15.5751L28.8253 13.7231C28.3117 13.4392 27.6883 13.4392 27.1747 13.7231L23.8243 15.5751C23.5128 15.7473 23.1398 15.4846 23.1971 15.1332L23.8614 11.0609C23.9486 10.5265 23.7769 9.98246 23.3988 9.59492L20.5796 6.70551C20.3372 6.45706 20.4773 6.03853 20.8204 5.9861L24.628 5.40435C25.1904 5.31843 25.6729 4.95784 25.9146 4.44287L27.6139 0.822498Z" fill="#FF9635"/>
<path d="M47.6139 0.822498C47.7674 0.495478 48.2326 0.495478 48.3861 0.822497L50.0854 4.44286C50.3271 4.95784 50.8096 5.31843 51.372 5.40435L55.1796 5.9861C55.5227 6.03853 55.6628 6.45706 55.4204 6.70551L52.6012 9.59492C52.2231 9.98246 52.0514 10.5265 52.1386 11.0609L52.8029 15.1332C52.8602 15.4846 52.4872 15.7473 52.1757 15.5751L48.8253 13.7231C48.3117 13.4392 47.6883 13.4392 47.1747 13.7231L43.8243 15.5751C43.5128 15.7473 43.1398 15.4846 43.1971 15.1332L43.8614 11.0609C43.9486 10.5265 43.7769 9.98246 43.3988 9.59492L40.5796 6.70551C40.3372 6.45706 40.4773 6.03853 40.8204 5.9861L44.628 5.40435C45.1904 5.31843 45.6729 4.95784 45.9146 4.44287L47.6139 0.822498Z" fill="#FF9635"/>
<path d="M67.6139 0.822498C67.7674 0.495478 68.2326 0.495478 68.3861 0.822497L70.0854 4.44286C70.3271 4.95784 70.8096 5.31843 71.372 5.40435L75.1796 5.9861C75.5227 6.03853 75.6628 6.45706 75.4204 6.70551L72.6012 9.59492C72.2231 9.98246 72.0514 10.5265 72.1386 11.0609L72.8029 15.1332C72.8602 15.4846 72.4872 15.7473 72.1757 15.5751L68.8253 13.7231C68.3117 13.4392 67.6883 13.4392 67.1747 13.7231L63.8243 15.5751C63.5128 15.7473 63.1398 15.4846 63.1971 15.1332L63.8614 11.0609C63.9486 10.5265 63.7769 9.98246 63.3988 9.59492L60.5796 6.70551C60.3372 6.45706 60.4773 6.03853 60.8204 5.9861L64.628 5.40435C65.1904 5.31843 65.6729 4.95784 65.9146 4.44287L67.6139 0.822498Z" fill="#DDDBD8"/>
<mask id="mask0_901_3671" style="mask-type:alpha" maskUnits="userSpaceOnUse" x="60" y="0" width="8" height="16">
<rect x="60" width="8" height="16" fill="#C4C4C4"/>
</mask>
<g mask="url(#mask0_901_3671)">
<path d="M67.6139 0.822498C67.7674 0.495478 68.2326 0.495478 68.3861 0.822497L70.0854 4.44286C70.3271 4.95784 70.8096 5.31843 71.372 5.40435L75.1796 5.9861C75.5227 6.03853 75.6628 6.45706 75.4204 6.70551L72.6012 9.59492C72.2231 9.98246 72.0514 10.5265 72.1386 11.0609L72.8029 15.1332C72.8602 15.4846 72.4872 15.7473 72.1757 15.5751L68.8253 13.7231C68.3117 13.4392 67.6883 13.4392 67.1747 13.7231L63.8243 15.5751C63.5128 15.7473 63.1398 15.4846 63.1971 15.1332L63.8614 11.0609C63.9486 10.5265 63.7769 9.98246 63.3988 9.59492L60.5796 6.70551C60.3372 6.45706 60.4773 6.03853 60.8204 5.9861L64.628 5.40435C65.1904 5.31843 65.6729 4.95784 65.9146 4.44287L67.6139 0.822498Z" fill="#FF9635"/>
</g>
<path d="M87.6139 0.822498C87.7674 0.495478 88.2326 0.495478 88.3861 0.822497L90.0854 4.44286C90.3271 4.95784 90.8096 5.31843 91.372 5.40435L95.1796 5.9861C95.5227 6.03853 95.6628 6.45706 95.4204 6.70551L92.6012 9.59492C92.2231 9.98246 92.0514 10.5265 92.1386 11.0609L92.8029 15.1332C92.8602 15.4846 92.4872 15.7473 92.1757 15.5751L88.8253 13.7231C88.3117 13.4392 87.6883 13.4392 87.1747 13.7231L83.8243 15.5751C83.5128 15.7473 83.1398 15.4846 83.1971 15.1332L83.8614 11.0609C83.9486 10.5265 83.7769 9.98246 83.3988 9.59492L80.5796 6.70551C80.3372 6.45706 80.4773 6.03853 80.8204 5.9861L84.628 5.40435C85.1904 5.31843 85.6729 4.95784 85.9146 4.44287L87.6139 0.822498Z" fill="#DDDBD8"/>
</svg>
